<?xml version="1.0" encoding="utf-8"?>
<!-- Generator: Adobe Illustrator 18.1.1, SVG Export Plug-In . SVG Version: 6.00 Build 0)  -->
<svg version="1.1" id="Layer_1" xmlns="http://www.w3.org/2000/svg" xmlns:xlink="http://www.w3.org/1999/xlink" x="0px" y="0px"
	 viewBox="162 0 476 473" enable-background="new 162 0 476 473" xml:space="preserve">
<path fill="#FFFFFF" d="M296.8,80.2c-1.9-1.9-4.8-1.9-6.7,0c-1.9,1.9-1.9,4.8,0,6.7l51.8,52.3c1,1,2.4,1.4,3.4,1.4
	c1,0,2.4-0.5,3.4-1.4c1.9-1.9,1.9-4.8,0-6.7L296.8,80.2z"/>
<path fill="#FFFFFF" d="M522.4,149.4c1,1,2.4,1.4,3.4,1.4c1,0,2.4-0.5,3.4-1.4l1.9-1.9c34.6,35,54.7,85.9,54.7,86.4
	c1,1.9,2.4,2.9,4.3,2.9c0,0,0,0,0.5,0c1.9,0,3.8-1.4,4.3-3.4c5.3-19.7,2.4-64.8-40.8-109l1.9-1.9c1-1,1.4-1.9,1.4-3.4
	c0-1.4-0.5-2.4-1.4-3.4l-2.4-2.4l3.8-3.8c3.8-3.8,5.8-8.6,5.8-13.9c0-5.3-1.9-10.1-5.8-13.9c-3.8-3.8-8.6-5.8-13.9-5.8
	c-5.3,0-10.1,1.9-13.9,5.8l-3.8,3.8l-2.4-2.4c-1.9-1.9-4.8-1.9-6.7,0l-2.4,2.4c-44.2-42.7-88.3-45.1-108-40.3
	c-1.9,0.5-3.4,2.4-3.4,4.3s1,3.8,2.9,4.8c0.5,0,50.4,20.2,85.4,53.8l-1.4,1.4c-1,1-1.4,1.9-1.4,3.4c0,1.4,0.5,2.4,1.4,3.4l2.9,2.9
	L400,212.3l-32.2-32.2l1.9-1.9c1.9-1.9,1.9-4.8,0-6.7l-11-11l17.8-17.8c6.2-6.2,6.2-16.8,0-23l-58.1-59
	c-12.5-12.5-29.3-19.2-47-19.2s-34.6,6.7-47,19.2s-19.7,29.3-19.7,47s6.7,34.6,19.7,47l58.1,58.1c3.4,3.4,7.2,4.8,11.5,4.8
	s8.2-1.4,11.5-4.8l17.8-17.8l11,11c1,1,1.9,1.4,3.4,1.4c1.4,0,2.4-0.5,3.4-1.4l1.9-1.9l32.2,32.2L262.7,349.1
	c-4.3-1.4-8.6-2.4-13-2.4c-9.1,0-18.2,3.8-24.5,10.1l-19.2,19.2c-1,1-1.4,1.9-1.4,3.4s0.5,2.4,1.4,3.4l47.5,47.5
	c1,1,2.4,1.4,3.4,1.4c1,0,2.4-0.5,3.4-1.4l19.2-19.2c6.7-6.7,10.1-15.4,10.1-24.5c0-4.3-1-9.1-2.4-13L400,260.3l113.3,113.3
	c-1.4,4.3-2.4,8.6-2.4,13c0,9.1,3.8,18.2,10.1,24.5l19.2,19.2c1,1,2.4,1.4,3.4,1.4c1,0,2.4-0.5,3.4-1.4l47.5-47.5
	c1-1,1.4-1.9,1.4-3.4s-0.5-2.4-1.4-3.4l-19.2-19.2c-6.7-6.7-15.4-10.1-24.5-10.1c-4.3,0-9.1,1-13,2.4L424.5,236.3l92.2-92.2
	L522.4,149.4z M587.2,213.7c-9.1-18.2-25.9-49-49.4-73l9.6-9.6C574.7,159.5,586.2,190.7,587.2,213.7z M536.3,88.4
	c3.8-3.8,10.6-3.8,13.9,0c1.9,1.9,2.9,4.3,2.9,7.2c0,2.9-1,5.3-2.9,7.2l-3.8,3.8l-13.9-13.9L536.3,88.4z M520,93.2l25.9,25.9
	l-20.2,20.2l-5.8-5.8l0,0l0,0l-17.3-17.3l0,0l0,0l-2.9-2.9L520,93.2z M425.4,52.9c23,1,53.8,12.5,81.6,39.4l-9.1,9.1
	C473.9,78.3,443.7,62,425.4,52.9z M298.7,205.5c-2.9,2.9-7.2,2.9-9.6,0L231,147.5c-10.6-10.6-16.8-25-16.8-40.3S220,77.9,231,66.8
	C241.6,56.3,256,50,271.4,50s29.3,5.8,40.3,16.8l58.1,58.1c2.9,2.9,2.9,7.2,0,9.6L298.7,205.5z M338.1,195.9l-7.7-7.7l21.6-21.6
	l7.7,7.7L338.1,195.9z M350.6,197.4l10.6-10.6l32.2,32.2l-10.6,10.6L350.6,197.4z M272.8,404.3L257,420.1l-40.3-40.3l15.8-15.8
	c4.8-4.8,11-7.2,17.8-7.2s13,2.4,17.8,7.2l4.8,4.8c4.8,4.8,7.2,11,7.2,17.8C280,393.2,277.1,399.5,272.8,404.3z M550.2,356.3
	c6.7,0,13,2.4,17.8,7.2l15.8,15.8l-40.3,40.3l-15.8-15.8c-4.8-4.8-7.2-11-7.2-17.8c0-6.7,2.4-13,7.2-17.8l4.8-4.8
	C537.3,359.1,543.5,356.3,550.2,356.3z M528.6,354.3c-1,1-1.9,1.9-2.9,2.9L521,362c-1,1-1.9,1.9-2.9,2.9L406.7,253.5l10.6-10.6
	L528.6,354.3z M281.9,364.9c-1-1-1.9-1.9-2.9-2.9l-4.8-4.8c-1-1-1.9-1.9-2.9-2.9l228-228l10.6,10.6L281.9,364.9z"/>
</svg>
