<svg width="282" height="199" viewBox="0 0 282 199" version="1.1" xmlns="http://www.w3.org/2000/svg" xmlns:xlink="http://www.w3.org/1999/xlink" xmlns:figma="http://www.figma.com/figma/ns">
<title>bear2</title>
<desc>Created using Figma</desc>
<g id="Canvas" transform="translate(-4239 1302)" figma:type="canvas">
<g id="bear2" figma:type="frame">
<g id="Group" figma:type="frame">
<g id="Vector" figma:type="vector">
<mask id="mask0_outline_ins">
<use xlink:href="#path0_fill" fill="white" transform="translate(4485.71 -1171.16)"/>
</mask>
<g mask="url(#mask0_outline_ins)">
<use xlink:href="#path1_stroke_2x" transform="translate(4485.71 -1171.16)" fill="#FFFFFF"/>
</g>
</g>
<g id="Vector" figma:type="vector">
<mask id="mask1_outline_ins">
<use xlink:href="#path2_fill" fill="white" transform="translate(4309.45 -1210.17)"/>
</mask>
<g mask="url(#mask1_outline_ins)">
<use xlink:href="#path3_stroke_2x" transform="translate(4309.45 -1210.17)" fill="#FFFFFF"/>
</g>
</g>
<g id="Vector" figma:type="vector">
<mask id="mask2_outline_ins">
<use xlink:href="#path4_fill" fill="white" transform="translate(4337.96 -1138.18)"/>
</mask>
<g mask="url(#mask2_outline_ins)">
<use xlink:href="#path5_stroke_2x" transform="translate(4337.96 -1138.18)" fill="#FFFFFF"/>
</g>
</g>
<g id="Vector" figma:type="vector">
<mask id="mask3_outline_ins">
<use xlink:href="#path6_fill" fill="white" transform="translate(4266.79 -1289.52)"/>
</mask>
<g mask="url(#mask3_outline_ins)">
<use xlink:href="#path7_stroke_2x" transform="translate(4266.79 -1289.52)" fill="#FFFFFF"/>
</g>
</g>
<g id="Vector" figma:type="vector">
<mask id="mask4_outline_ins">
<use xlink:href="#path8_fill" fill="white" transform="translate(4239 -1302)"/>
</mask>
<g mask="url(#mask4_outline_ins)">
<use xlink:href="#path9_stroke_2x" transform="translate(4239 -1302)" fill="#FFFFFF"/>
</g>
</g>
</g>
</g>
</g>
<defs>
<path id="path0_fill" d="M 19.5264 0C 19.5264 0 14.9196 18.3556 13.48 21.7973C 12.3283 25.239 5.13018 37.2849 5.13018 37.2849C 5.13018 37.2849 9.16113 46.7495 9.73698 48.4704C 10.3128 50.1912 1.38717 53.9197 0.235467 56.7878C -0.916232 59.6558 1.96302 62.2371 13.1921 61.3767C 24.4212 60.8031 29.3159 61.9503 32.1951 50.1912C 35.6502 38.4321 40.5449 24.6654 19.5264 0Z"/>
<path id="path1_stroke_2x" d="M 19.5264 0L 22.571 -2.59439L 17.5363 -8.50259L 15.6467 -0.9737L 19.5264 0ZM 13.48 21.7973L 9.78983 20.2537L 9.73327 20.389L 9.68676 20.528L 13.48 21.7973ZM 5.13018 37.2849L 1.69652 35.2331L 0.652649 36.98L 1.45005 38.8522L 5.13018 37.2849ZM 13.1921 61.3767L 12.988 57.3819L 12.9372 57.3845L 12.8865 57.3884L 13.1921 61.3767ZM 32.1951 50.1912L 28.3574 49.0636L 28.3316 49.1512L 28.3099 49.2399L 32.1951 50.1912ZM 19.5264 0C 15.6467 -0.9737 15.6467 -0.973686 15.6467 -0.973602C 15.6467 -0.973481 15.6467 -0.973328 15.6466 -0.973086C 15.6465 -0.972566 15.6463 -0.971842 15.646 -0.970805C 15.6455 -0.968656 15.6447 -0.965555 15.6436 -0.96129C 15.6415 -0.952609 15.6383 -0.939885 15.634 -0.92278C 15.6253 -0.888263 15.6125 -0.837493 15.5956 -0.770509C 15.5617 -0.635911 15.512 -0.439188 15.448 -0.186324C 15.3196 0.320729 15.1354 1.04599 14.9091 1.92967C 14.4559 3.69989 13.8394 6.08509 13.1768 8.58225C 11.8041 13.7564 10.3751 18.8545 9.78983 20.2537L 17.1702 23.3409C 18.0245 21.2985 19.6188 15.4979 20.9093 10.6338C 21.5784 8.11185 22.2036 5.69303 22.6591 3.91402C 22.8872 3.02309 23.0741 2.28742 23.2033 1.7772C 23.2681 1.52144 23.3188 1.32044 23.3531 1.18447C 23.3703 1.11618 23.3835 1.06346 23.3924 1.0283C 23.3968 1.01057 23.4003 0.996914 23.4025 0.987925C 23.4037 0.983354 23.4046 0.979796 23.4052 0.977496C 23.4055 0.976308 23.4057 0.975359 23.4058 0.974763C 23.4059 0.974446 23.406 0.97418 23.406 0.974022C 23.4061 0.973826 23.4061 0.9737 19.5264 0ZM 9.68676 20.528C 9.26187 21.7977 7.41567 25.278 5.39017 28.8649C 4.42985 30.5656 3.50981 32.1517 2.82119 33.3276C 2.47828 33.9132 2.19765 34.3886 2.00012 34.7221C 1.90201 34.8878 1.82622 35.0153 1.77389 35.1032C 1.74804 35.1467 1.72872 35.1791 1.71538 35.2015C 1.70886 35.2124 1.70415 35.2203 1.70084 35.2258C 1.69926 35.2285 1.69818 35.2303 1.69738 35.2316C 1.69702 35.2322 1.69681 35.2326 1.69662 35.2329C 1.69655 35.233 1.69653 35.2331 1.69649 35.2331C 1.69649 35.2331 1.69652 35.2331 5.13018 37.2849C 8.56385 39.3367 8.56393 39.3366 8.56404 39.3364C 8.56411 39.3363 8.56425 39.336 8.5644 39.3358C 8.56465 39.3354 8.56509 39.3346 8.56561 39.3338C 8.56655 39.3322 8.56808 39.3296 8.56997 39.3265C 8.57358 39.3204 8.57922 39.311 8.58635 39.299C 8.60032 39.2756 8.62157 39.2399 8.64872 39.1943C 8.70239 39.1041 8.78237 38.9695 8.88333 38.799C 9.08395 38.4603 9.37467 37.9678 9.72458 37.3703C 10.4216 36.18 11.3731 34.5395 12.3562 32.7986C 14.2177 29.5021 16.5464 25.2386 17.2733 23.0667L 9.68676 20.528ZM 5.13018 37.2849C 1.45005 38.8522 1.45005 38.8523 1.45007 38.8523C 1.4501 38.8524 1.45013 38.8524 1.45019 38.8526C 1.4503 38.8528 1.45046 38.8532 1.45069 38.8538C 1.45117 38.8549 1.45185 38.8565 1.4528 38.8587C 1.45471 38.8632 1.45751 38.8698 1.46127 38.8786C 1.46886 38.8964 1.48002 38.9227 1.49473 38.9572C 1.52426 39.0267 1.56743 39.1282 1.62282 39.2586C 1.73387 39.5201 1.89257 39.8942 2.08532 40.3496C 2.47137 41.2618 2.98999 42.4909 3.52746 43.7759C 4.60295 46.347 5.70098 49.0071 5.94373 49.7397L 13.5302 47.201C 13.1971 46.2128 11.9918 43.2801 10.9078 40.6887C 10.3656 39.3924 9.84045 38.1479 9.45271 37.2316C 9.25856 36.7729 9.09785 36.3941 8.9862 36.1312C 8.93025 35.9995 8.88625 35.896 8.85646 35.826C 8.8415 35.7908 8.82996 35.7637 8.82225 35.7456C 8.81837 35.7365 8.81539 35.7294 8.81342 35.7248C 8.81242 35.7225 8.81164 35.7206 8.81114 35.7195C 8.81088 35.7189 8.81068 35.7184 8.81055 35.7181C 8.81048 35.7179 8.81042 35.7178 8.81039 35.7177C 8.81034 35.7176 8.81032 35.7175 5.13018 37.2849ZM 5.94373 49.7397C 5.40393 48.1266 6.21518 46.9803 6.26791 46.9053C 6.38846 46.7336 6.41244 46.7598 6.11655 47.0031C 5.51582 47.505 4.59769 48.0975 3.44539 48.8508C 2.29315 49.604 0.941831 50.4926 -0.188482 51.3782C -1.17542 52.1557 -2.75299 53.4956 -3.47644 55.2972L 3.94737 58.2783C 3.79978 58.6459 3.7698 58.4442 4.76234 57.6622C 5.61151 56.9883 6.67156 56.2995 7.82271 55.547C 8.97381 54.7945 10.2511 53.953 11.198 53.1821C 11.7124 52.7544 12.3955 52.0697 12.8146 51.5031C 13.2498 50.8835 14.214 49.2443 13.5302 47.201L 5.94373 49.7397ZM -3.47644 55.2972C -4.06022 56.751 -4.28936 58.612 -3.45468 60.4728C -2.64454 62.2789 -1.12639 63.4236 0.421111 64.1243C 3.36501 65.4572 7.74911 65.8055 13.4977 65.365L 12.8865 57.3884C 7.40599 57.8083 4.73593 57.2961 3.72087 56.8365C 3.28888 56.6409 3.60135 56.6563 3.84464 57.1987C 4.11247 57.7958 3.95531 58.2586 3.94737 58.2783L -3.47644 55.2972ZM 13.3962 65.3715C 16.1311 65.2311 18.5907 65.1934 20.794 65.0293C 23.04 64.8568 25.4265 64.453 27.3739 63.6663C 32.0993 61.6814 34.5253 57.4934 36.0804 51.1425L 28.3099 49.2399C 26.9857 54.648 25.5247 55.766 24.2757 56.2906C 23.2359 56.7588 22.1133 56.9107 20.1933 57.0519C 18.2307 57.2015 15.8676 57.2354 12.988 57.3819L 13.3962 65.3715ZM 36.0329 51.3188C 37.7429 45.4974 39.9911 38.32 39.0092 29.4528C 37.9143 20.4453 33.4122 10.1279 22.571 -2.59439L 16.4819 2.59439C 26.6592 14.5375 30.219 23.4362 31.0676 30.4181C 32.0292 37.5405 30.1025 43.1259 28.3574 49.0636L 36.0329 51.3188Z"/>
<path id="path2_fill" d="M 30.2321 27.2467L 23.034 5.44933C 21.8823 2.29445 19.003 4.37633e-06 15.5479 4.37633e-06L 0 4.37633e-06C 0 4.37633e-06 3.4551 14.0535 7.19812 26.673C 10.6532 39.0057 15.5479 45.6023 15.5479 45.6023L 30.2321 27.2467Z"/>
<path id="path3_stroke_2x" d="M 30.2321 27.2467L 33.3556 29.7454L 34.7105 28.0518L 34.0304 25.9924L 30.2321 27.2467ZM 23.034 5.44933L 26.8323 4.19503L 26.8128 4.13603L 26.7915 4.07765L 23.034 5.44933ZM 0 4.37633e-06L 0 -4L -5.10252 -4L -3.88433 0.954978L 0 4.37633e-06ZM 7.19812 26.673L 11.0498 25.594L 11.0416 25.5647L 11.033 25.5356L 7.19812 26.673ZM 15.5479 45.6023L 12.3357 47.9858L 15.4288 52.1544L 18.6714 48.101L 15.5479 45.6023ZM 34.0304 25.9924L 26.8323 4.19503L 19.2357 6.70362L 26.4339 28.501L 34.0304 25.9924ZM 26.7915 4.07765C 25.1349 -0.460259 20.882 -4 15.5479 -4L 15.5479 4C 17.1241 4 18.6297 5.04916 19.2765 6.821L 26.7915 4.07765ZM 15.5479 -4L 0 -4L 0 4L 15.5479 4L 15.5479 -4ZM 0 4.37633e-06C -3.88433 0.954978 -3.8843 0.955113 -3.88425 0.955301C -3.88422 0.955436 -3.88416 0.955678 -3.88409 0.955947C -3.88397 0.956429 -3.88378 0.957235 -3.88354 0.958198C -3.88309 0.960016 -3.88238 0.962905 -3.88149 0.966527C -3.87976 0.973552 -3.87709 0.984396 -3.87365 0.998331C -3.86689 1.02576 -3.85662 1.06736 -3.84328 1.12129C -3.81683 1.22824 -3.77717 1.38827 -3.72579 1.59468C -3.62349 2.00566 -3.47229 2.61039 -3.27997 3.37217C -2.89633 4.89178 -2.34323 7.05941 -1.67437 9.61647C -0.338771 14.7223 1.47796 21.4532 3.36326 27.8105L 11.033 25.5356C 9.17526 19.2734 7.39293 12.6678 6.06523 7.59195C 5.40243 5.05819 4.85782 2.92372 4.47666 1.41393C 4.28657 0.661005 4.13861 0.0692206 4.03733 -0.337652C 3.98693 -0.54016 3.9487 -0.694391 3.92272 -0.79946C 3.90983 -0.851545 3.90024 -0.890399 3.8937 -0.916922C 3.89049 -0.929963 3.88815 -0.939469 3.88653 -0.94605C 3.88574 -0.949231 3.88519 -0.951459 3.8848 -0.953058C 3.88462 -0.953802 3.8845 -0.95428 3.88441 -0.954653C 3.88437 -0.954813 3.88435 -0.954891 3.88433 -0.954971C 3.88432 -0.954997 3.88433 -0.954969 0 4.37633e-06ZM 3.34643 27.7521C 5.16042 34.1895 7.40619 39.3009 9.11819 42.6047C 10.0009 44.3023 10.8067 45.6593 11.3483 46.5166C 11.6328 46.9659 11.8801 47.3359 12.0349 47.5611C 12.1191 47.6835 12.1945 47.7904 12.2382 47.8515C 12.2635 47.8869 12.2879 47.9206 12.3007 47.9383C 12.3089 47.9494 12.3176 47.9614 12.3217 47.967C 12.3246 47.9709 12.3281 47.9756 12.3296 47.9776C 12.3308 47.9792 12.3323 47.9813 12.3329 47.982C 12.3334 47.9827 12.3341 47.9837 12.3343 47.984C 12.335 47.9849 12.3357 47.9858 15.5479 45.6023C 18.7602 43.2187 18.7608 43.2196 18.7615 43.2204C 18.7616 43.2207 18.7622 43.2215 18.7626 43.2219C 18.7623 43.2216 18.7651 43.2253 18.7645 43.2245C 18.7642 43.2242 18.7676 43.2287 18.767 43.228C 18.7677 43.2288 18.7681 43.2294 18.7669 43.2277C 18.761 43.2197 18.7575 43.2148 18.7461 43.1989C 18.7164 43.1574 18.6832 43.1105 18.6269 43.0284C 18.5005 42.8447 18.3384 42.603 18.11 42.2412C 17.6259 41.4762 16.992 40.4133 16.2192 38.9202C 14.6201 35.8425 12.6909 31.4893 11.0498 25.594L 3.34643 27.7521ZM 18.6714 48.101L 33.3556 29.7454L 27.1086 24.7479L 12.4244 43.1035L 18.6714 48.101Z"/>
<path id="path4_fill" d="M 10.0695 14.9139C 7.76612 18.9292 7.76612 22.0841 1.71969 26.0994C -4.32673 30.1147 6.32649 28.1071 21.8744 28.6807C 21.8744 28.6807 29.0726 26.3862 29.0726 20.3633C 29.0726 14.3403 23.602 -4.07577e-14 23.602 -4.07577e-14C 23.602 -4.07577e-14 12.3729 10.6118 10.0695 14.9139Z"/>
<path id="path5_stroke_2x" d="M 10.0695 14.9139L 13.5392 16.9043L 13.5683 16.8536L 13.5959 16.802L 10.0695 14.9139ZM 21.8744 28.6807L 21.727 32.678L 22.4244 32.7037L 23.0892 32.4918L 21.8744 28.6807ZM 23.602 -4.07577e-14L 27.3393 -1.42571L 25.2055 -7.019L 20.8546 -2.9072L 23.602 -4.07577e-14ZM 6.59988 12.9236C 3.70385 17.9719 4.5046 19.4484 -0.493131 22.7672L 3.93252 29.4316C 11.0276 24.7199 11.8284 19.8865 13.5392 16.9043L 6.59988 12.9236ZM -0.493131 22.7672C -1.29303 23.2984 -2.26199 24.005 -2.94566 24.8842C -3.28962 25.3266 -3.86286 26.1893 -3.97938 27.3946C -4.11982 28.8472 -3.53947 30.1149 -2.67489 30.9662C -1.44311 32.1791 0.231172 32.4094 0.758538 32.4869C 1.5385 32.5975 2.58647 32.6599 3.62471 32.68C 7.62229 32.7517 14.1361 32.3937 21.727 32.678L 22.0219 24.6834C 14.0649 24.394 7.47806 24.753 3.77364 24.6814C 2.88638 24.6656 2.34627 24.6384 1.92167 24.5719C 1.24448 24.4724 2.09772 24.4383 2.9381 25.2658C 3.60699 25.9245 4.09904 26.9692 3.98349 28.1644C 3.89186 29.1123 3.45668 29.6832 3.36971 29.795C 3.20003 30.0133 3.22082 29.9042 3.93252 29.4316L -0.493131 22.7672ZM 21.8744 28.6807C 23.0892 32.4918 23.0907 32.4913 23.0922 32.4908C 23.0927 32.4907 23.0942 32.4902 23.0952 32.4898C 23.0964 32.4895 23.0996 32.4884 23.1019 32.4877C 23.1047 32.4868 23.1118 32.4845 23.1174 32.4827C 23.1247 32.4803 23.1416 32.4747 23.1563 32.4699C 23.1779 32.4627 23.2226 32.4476 23.2654 32.4328C 23.3352 32.4086 23.4655 32.3619 23.5998 32.3113C 23.8353 32.2219 24.242 32.0573 24.6654 31.8645C 25.4415 31.5071 26.7001 30.8318 27.8469 30.0004C 30.1516 28.3015 33.0726 25.1745 33.0726 20.3633L 25.0726 20.3633C 25.0726 21.575 24.3944 22.6067 23.1001 23.5608C 22.4474 24.0558 21.9064 24.3306 21.3329 24.5916C 21.0815 24.7081 20.9258 24.7698 20.7677 24.8294C 20.7051 24.8532 20.6808 24.8618 20.6452 24.8741C 20.6352 24.8776 20.6283 24.8798 20.6339 24.878C 20.6328 24.8783 20.6424 24.8752 20.6419 24.8753C 20.6398 24.876 20.6506 24.8725 20.6496 24.8728C 20.6481 24.8733 20.655 24.8711 20.6543 24.8713C 20.6551 24.8711 20.6565 24.8706 20.6569 24.8705C 20.6582 24.8701 20.6596 24.8696 21.8744 28.6807ZM 33.0726 20.3633C 33.0726 16.6321 31.486 10.9509 30.1522 6.7203C 29.4518 4.49991 28.744 2.44898 28.2245 0.991505C 27.9623 0.256296 27.7402 -0.350379 27.588 -0.761308C 27.5108 -0.969778 27.4485 -1.13637 27.4072 -1.24596C 27.3861 -1.30219 27.3691 -1.34724 27.3582 -1.376C 27.3524 -1.39108 27.3477 -1.40354 27.3448 -1.41115C 27.3432 -1.41531 27.3419 -1.41895 27.3411 -1.42104C 27.3406 -1.42225 27.3402 -1.42342 27.3399 -1.42403C 27.3398 -1.42442 27.3396 -1.42484 27.3395 -1.42503C 27.3394 -1.4254 27.3393 -1.42571 23.602 -4.07577e-14C 19.8647 1.42571 19.8646 1.42551 19.8646 1.42536C 19.8646 1.42539 19.8645 1.42529 19.8646 1.42534C 19.8647 1.4256 19.8647 1.42574 19.8649 1.42627C 19.8654 1.42766 19.866 1.42923 19.8671 1.43199C 19.8694 1.4382 19.8726 1.44641 19.8772 1.45865C 19.887 1.48451 19.9007 1.52072 19.9196 1.571C 19.9585 1.67442 20.0137 1.8218 20.0861 2.01721C 20.233 2.41404 20.4384 2.97476 20.6891 3.67807C 21.1952 5.09762 21.8552 7.00821 22.5224 9.12578C 23.9239 13.5711 25.0726 18.0715 25.0726 20.3633L 33.0726 20.3633ZM 23.602 -4.07577e-14C 20.8546 -2.9072 20.8544 -2.90702 20.8542 -2.90681C 20.854 -2.90668 20.8538 -2.90643 20.8535 -2.90617C 20.8531 -2.90576 20.8523 -2.90501 20.8514 -2.90418C 20.8498 -2.90271 20.8472 -2.90024 20.8441 -2.89731C 20.8383 -2.89183 20.8291 -2.88307 20.8176 -2.87221C 20.7955 -2.85124 20.7614 -2.81885 20.7183 -2.77789C 20.6338 -2.69748 20.5067 -2.57629 20.3473 -2.42354C 20.0319 -2.12121 19.5715 -1.67755 19.0183 -1.13791C 17.919 -0.0655062 16.4043 1.43435 14.8284 3.05857C 13.2563 4.67945 11.5557 6.49683 10.1237 8.15969C 8.67828 9.84166 7.28704 11.6655 6.54316 13.0259L 13.5959 16.802C 14.0037 16.0113 14.8799 14.8954 16.1877 13.3777C 17.509 11.8409 19.0476 10.1986 20.5706 8.6288C 22.0899 7.0623 23.5265 5.64031 24.6046 4.58855C 25.1402 4.06611 25.575 3.64711 25.8826 3.3523C 26.0348 3.20648 26.1512 3.09548 26.2323 3.01834C 26.272 2.98053 26.3013 2.9528 26.3218 2.93336C 26.3316 2.924 26.3385 2.91748 26.3435 2.91273C 26.3459 2.91054 26.3473 2.90916 26.3485 2.90805C 26.349 2.90759 26.3492 2.90738 26.3494 2.90714C 26.3495 2.90707 26.3495 2.90709 26.3495 2.90705C 26.3495 2.9071 26.3494 2.9072 23.602 -4.07577e-14Z"/>
<path id="path6_fill" d="M 13.2886 5.92576C 13.2886 5.92576 8.96976 -1.24441 3.21126 0.189622C -2.54724 1.62366 1.19579 13.9564 1.19579 13.9564C 1.19579 13.9564 4.65089 7.6466 13.2886 5.92576Z"/>
<path id="path7_stroke_2x" d="M 13.2886 5.92576L 14.0702 9.84867L 19.6514 8.73676L 16.7151 3.86189L 13.2886 5.92576ZM 1.19579 13.9564L -2.63181 15.118L 0.132589 24.2263L 4.70423 15.8775L 1.19579 13.9564ZM 13.2886 5.92576C 16.7151 3.86189 16.7144 3.86072 16.7136 3.85953C 16.7134 3.8591 16.7126 3.85788 16.7121 3.85701C 16.7115 3.85603 16.7099 3.85341 16.7088 3.85145C 16.7073 3.84905 16.7037 3.84313 16.7008 3.83833C 16.6968 3.83177 16.6879 3.81722 16.6798 3.80416C 16.6675 3.78422 16.6428 3.7446 16.618 3.70538C 16.5763 3.63959 16.4997 3.52091 16.416 3.39569C 16.2658 3.17156 16.0042 2.79728 15.7061 2.40431C 15.1484 1.67426 14.1784 0.539554 13.0795 -0.458419C 10.9254 -2.38957 7.06017 -4.89103 2.24467 -3.69183L 4.17786 4.07108C 5.12085 3.83624 6.29431 4.20285 7.73928 5.49827C 8.43991 6.11359 8.90949 6.6818 9.34161 7.25134C 9.53833 7.50817 9.65913 7.68285 9.7676 7.84524C 9.81331 7.91328 9.83508 7.94725 9.85945 7.98579C 9.86768 7.99874 9.86795 7.9992 9.87232 8.00631C 9.87262 8.00677 9.87038 8.00314 9.87018 8.00281C 9.87101 8.00418 9.86652 7.99679 9.86693 7.99745C 9.86759 7.99855 9.86442 7.99331 9.86475 7.99385C 9.86436 7.9932 9.86372 7.99215 9.86352 7.99182C 9.86287 7.99074 9.8622 7.98963 13.2886 5.92576ZM 2.24467 -3.69183C -0.897308 -2.90939 -2.56932 -0.563601 -3.32248 1.66503C -3.92408 3.57005 -4.06362 6.02588 -3.94718 7.87494C -3.81781 9.732 -3.4813 11.618 -3.20452 12.8716C -3.06031 13.5208 -2.91536 14.0933 -2.81752 14.4588C -2.76571 14.6519 -2.71888 14.8189 -2.68981 14.9203C -2.67384 14.9759 -2.65925 15.0259 -2.65088 15.0542C -2.64599 15.0707 -2.6412 15.0868 -2.63871 15.0951C -2.63712 15.1004 -2.63539 15.1062 -2.63458 15.1089C -2.63401 15.1108 -2.63331 15.1131 -2.63302 15.114C -2.63279 15.1148 -2.63249 15.1158 -2.63237 15.1162C -2.63208 15.1171 -2.63181 15.118 1.19579 13.9564C 5.02338 12.7947 5.02363 12.7955 5.02386 12.7962C 5.02392 12.7964 5.02414 12.7972 5.02426 12.7976C 5.0242 12.7973 5.02492 12.7998 5.0248 12.7993C 5.0249 12.7997 5.02509 12.8003 5.02491 12.7997C 5.02384 12.7961 5.02335 12.7945 5.02133 12.7877C 5.01589 12.7692 5.01017 12.7497 5.00012 12.7147C 4.97717 12.6347 4.94921 12.5353 4.90993 12.3884C 4.82556 12.0739 4.72307 11.6717 4.60635 11.1423C 4.36127 10.0387 4.12193 8.75193 4.03535 7.34656C 3.93585 5.93319 3.94028 5.03697 4.25643 4.22629C 4.3615 3.86896 4.49529 3.86566 4.37739 3.94149C 4.31598 4.05714 4.03642 4.05847 4.17786 4.07108L 2.24467 -3.69183ZM 1.19579 13.9564C 4.70423 15.8775 4.70336 15.8791 4.70251 15.8807C 4.70224 15.8811 4.70139 15.8827 4.70085 15.8837C 4.70134 15.8828 4.69679 15.891 4.69776 15.8893C 4.69854 15.8879 4.69089 15.9017 4.69245 15.8988C 4.69319 15.8975 4.68374 15.9144 4.68531 15.9116C 4.68356 15.9147 4.68179 15.9175 4.68499 15.9122C 4.70152 15.884 4.70874 15.8716 4.74086 15.8213C 4.82694 15.6848 4.91274 15.5543 5.08289 15.3271C 5.47355 14.798 5.93019 14.2388 6.71499 13.5267C 8.41671 11.94 10.4958 10.4836 14.0702 9.84867L 12.5071 2.00285C 7.44372 3.08872 3.47638 5.64767 1.29112 7.64606C 0.132425 8.72647 -0.814564 9.8523 -1.34166 10.56C -1.63039 10.9513 -1.88201 11.3271 -2.01862 11.5424C -2.09785 11.668 -2.1733 11.7929 -2.21159 11.8579C -2.23581 11.8992 -2.26153 11.944 -2.27338 11.9648C -2.28175 11.9796 -2.29168 11.9973 -2.2958 12.0047C -2.29906 12.0106 -2.3033 12.0182 -2.30492 12.0211C -2.30632 12.0237 -2.30826 12.0272 -2.30896 12.0285C -2.3096 12.0296 -2.31053 12.0313 -2.31085 12.0319C -2.31176 12.0336 -2.31265 12.0352 1.19579 13.9564Z"/>
<path id="path8_fill" d="M 263.649 75.7705C 253.86 49.0975 236.296 7.79731 153.662 13.8203C 153.662 13.8203 140.129 12.0994 131.78 4.92924C 123.43 -2.24093 108.17 -2.81454 89.7426 11.5258C 89.7426 11.5258 81.9686 16.6883 55.4795 19.8432C 55.4795 19.8432 39.9316 20.4168 34.461 26.7266C 28.9904 33.0363 19.4889 40.2065 16.0338 47.3767C 15.17 49.3843 16.0338 54.8336 16.0338 54.8336L 1.34965 66.3059C -0.0899765 67.4531 -0.377901 69.7476 0.485873 71.1816C 3.0772 74.9101 7.684 85.2352 11.7149 86.0956C 15.458 86.956 26.3991 88.1032 37.9161 86.6692C 46.5539 85.8088 73.0429 85.8088 89.4547 86.0956C 94.3494 86.0956 98.6683 89.2505 100.108 94.1262L 107.306 119.939C 107.306 119.939 97.8045 136 87.1513 146.612C 76.498 157.224 77.0739 171.564 80.529 178.447C 83.9841 185.618 97.2286 193.361 104.139 178.447C 111.337 163.533 131.492 156.076 137.538 145.465C 143.297 134.853 155.389 119.939 152.798 101.296L 153.086 93.2658C 153.086 93.2658 159.42 105.312 156.253 116.784C 153.374 128.256 153.374 128.256 153.374 128.256C 153.374 128.256 189.077 138.868 196.563 135.426C 196.563 135.426 197.714 116.497 216.142 98.7151C 216.142 98.7151 198.29 128.256 200.594 143.744C 202.897 159.231 201.17 166.688 198.866 175.579C 196.563 184.47 192.532 187.052 192.532 187.052C 192.532 187.052 181.015 188.772 181.591 195.082C 182.166 201.679 223.34 197.95 223.34 197.95C 223.34 197.95 229.674 196.803 229.674 192.501C 229.674 188.199 248.101 175.293 258.179 140.876C 268.832 105.885 273.151 102.444 263.649 75.7705ZM 63.8294 45.0822C 63.8294 45.0822 61.526 35.6176 53.4641 33.6099C 53.4641 33.6099 55.7675 24.7189 60.6622 26.4398C 65.5569 28.1606 64.6931 40.2065 63.8294 45.0822Z"/>
<path id="path9_stroke_2x" d="M 263.649 75.7705L 267.417 74.4283L 267.411 74.4103L 267.404 74.3924L 263.649 75.7705ZM 153.662 13.8203L 153.157 17.7883L 153.554 17.8387L 153.953 17.8097L 153.662 13.8203ZM 89.7426 11.5258L 91.9554 14.858L 92.0806 14.7748L 92.1992 14.6825L 89.7426 11.5258ZM 55.4795 19.8432L 55.627 23.8405L 55.7903 23.8344L 55.9526 23.8151L 55.4795 19.8432ZM 16.0338 47.3767L 12.4304 45.6403L 12.3933 45.7173L 12.3595 45.7958L 16.0338 47.3767ZM 16.0338 54.8336L 18.4964 57.9857L 20.3534 56.5349L 19.9845 54.2074L 16.0338 54.8336ZM 1.34965 66.3059L -1.11296 63.1538L -1.12814 63.1657L -1.1432 63.1777L 1.34965 66.3059ZM 0.485873 71.1816L -2.94056 73.2455L -2.87322 73.3573L -2.79874 73.4645L 0.485873 71.1816ZM 11.7149 86.0956L 12.6111 82.1973L 12.5806 82.1902L 12.5499 82.1837L 11.7149 86.0956ZM 37.9161 86.6692L 37.5196 82.6889L 37.4707 82.6938L 37.4219 82.6998L 37.9161 86.6692ZM 89.4547 86.0956L 89.3848 90.095L 89.4197 90.0956L 89.4547 90.0956L 89.4547 86.0956ZM 100.108 94.1262L 103.961 93.0517L 103.953 93.0225L 103.944 92.9935L 100.108 94.1262ZM 107.306 119.939L 110.749 121.975L 111.617 120.507L 111.159 118.864L 107.306 119.939ZM 80.529 178.447L 84.1325 176.711L 84.1184 176.682L 84.1039 176.653L 80.529 178.447ZM 104.139 178.447L 100.536 176.709L 100.523 176.737L 100.509 176.766L 104.139 178.447ZM 137.538 145.465L 141.014 147.445L 141.034 147.409L 141.054 147.372L 137.538 145.465ZM 152.798 101.296L 148.801 101.153L 148.788 101.502L 148.836 101.847L 152.798 101.296ZM 153.086 93.2658L 156.626 91.4041L 149.627 78.0943L 149.089 93.1224L 153.086 93.2658ZM 156.253 116.784L 152.397 115.719L 152.385 115.765L 152.374 115.81L 156.253 116.784ZM 153.374 128.256L 150.301 130.817L 151.075 131.746L 152.234 132.09L 153.374 128.256ZM 196.563 135.426L 198.234 139.061L 200.41 138.06L 200.555 135.669L 196.563 135.426ZM 216.142 98.7151L 219.565 100.784L 213.364 95.8367L 216.142 98.7151ZM 192.532 187.052L 193.123 191.008L 193.969 190.881L 194.689 190.42L 192.532 187.052ZM 181.591 195.082L 185.575 194.734L 185.575 194.726L 185.574 194.719L 181.591 195.082ZM 223.34 197.95L 223.701 201.934L 223.878 201.918L 224.053 201.886L 223.34 197.95ZM 258.179 140.876L 254.352 139.711L 254.346 139.731L 254.34 139.752L 258.179 140.876ZM 63.8294 45.0822L 59.9428 46.0281L 67.768 45.78L 63.8294 45.0822ZM 53.4641 33.6099L 49.5919 32.6068L 48.5792 36.5156L 52.4975 37.4914L 53.4641 33.6099ZM 267.404 74.3924C 262.488 60.9981 255.133 43.0634 238.489 29.4254C 221.536 15.7018 195.38 6.76896 153.371 9.83084L 153.953 17.8097C 194.578 14.8486 218.522 23.5544 233.456 35.6434C 248.699 47.818 255.021 63.8699 259.894 77.1487L 267.404 74.3924ZM 153.662 13.8203C 154.167 9.85221 154.167 9.85231 154.168 9.85241C 154.168 9.85243 154.169 9.85252 154.169 9.85257C 154.169 9.85255 154.171 9.85282 154.171 9.85278C 154.171 9.85284 154.172 9.85285 154.171 9.85273C 154.166 9.85218 154.164 9.85183 154.156 9.85073C 154.135 9.84791 154.111 9.84465 154.07 9.83886C 153.979 9.82595 153.861 9.8086 153.689 9.78135C 153.325 9.72389 152.835 9.64102 152.184 9.51357C 150.84 9.25145 149.079 8.85735 147 8.23188C 142.754 6.96411 138.038 5.0995 134.386 1.89458L 129.174 7.9639C 133.872 11.9292 140.097 14.5101 144.704 15.8952C 147.052 16.5963 149.195 17.0805 150.65 17.3651C 151.398 17.511 152.031 17.6186 152.44 17.6833C 152.654 17.7171 152.835 17.7437 152.946 17.7595C 153.006 17.7681 153.059 17.7753 153.09 17.7795C 153.108 17.7818 153.125 17.7841 153.134 17.7852C 153.139 17.786 153.145 17.7867 153.148 17.7871C 153.15 17.7874 153.152 17.7877 153.153 17.7878C 153.154 17.7879 153.155 17.788 153.155 17.7881C 153.156 17.7882 153.157 17.7883 153.662 13.8203ZM 134.386 1.89458C 123.974 -7.04647 106.461 -6.55343 87.286 8.36906L 92.1992 14.6825C 109.878 0.924337 122.886 2.56461 129.174 7.9639L 134.386 1.89458ZM 89.7426 11.5258C 87.5298 8.19362 87.5318 8.19225 87.5339 8.1909C 87.5345 8.19047 87.5365 8.18915 87.5378 8.1883C 87.5366 8.18907 87.5474 8.18196 87.5451 8.18349C 87.5433 8.18469 87.5612 8.17297 87.5576 8.17536C 87.5558 8.17648 87.577 8.16284 87.5736 8.16502C 87.578 8.1622 87.579 8.16177 87.5695 8.16744C 87.5282 8.19271 87.4975 8.21111 87.4093 8.2599C 87.1882 8.38352 86.9086 8.53137 86.4224 8.75703C 85.3611 9.25345 83.7959 9.90301 81.3231 10.6925C 76.2066 12.3359 68.0145 14.3292 55.0065 15.8713L 55.9526 23.8151C 69.4337 22.2023 78.3731 20.0369 83.7659 18.3104C 86.5477 17.4148 88.5816 16.5766 89.8056 16.0064C 90.4621 15.6988 90.9969 15.4187 91.3043 15.2477C 91.4804 15.1491 91.6427 15.0535 91.7281 15.0016C 91.782 14.9687 91.8387 14.9333 91.8654 14.9164C 91.8843 14.9043 91.9068 14.8899 91.9162 14.8837C 91.9237 14.8789 91.9335 14.8724 91.9372 14.87C 91.9405 14.8678 91.945 14.8648 91.9467 14.8638C 91.9482 14.8628 91.9504 14.8613 91.9511 14.8608C 91.9533 14.8594 91.9554 14.858 89.7426 11.5258ZM 55.4795 19.8432C 55.3321 15.8459 55.3312 15.8459 55.3303 15.846C 55.33 15.846 55.329 15.846 55.3283 15.8461C 55.3273 15.8461 55.325 15.8462 55.3231 15.8463C 55.3201 15.8464 55.3142 15.8466 55.3084 15.8468C 55.2988 15.8472 55.2812 15.8479 55.2621 15.8488C 55.2282 15.8502 55.171 15.8528 55.1045 15.8561C 54.98 15.8623 54.7816 15.8732 54.5442 15.8884C 54.0874 15.9178 53.3904 15.9702 52.5716 16.0508C 50.9727 16.209 48.6548 16.5062 46.2225 16.9994C 41.6328 17.9354 35.1361 19.8417 31.4388 24.1063L 37.4833 29.3469C 39.2565 27.3017 43.2691 25.7663 47.821 24.8381C 49.9595 24.3991 51.8705 24.1585 53.3577 24.0121C 54.0821 23.9403 54.6425 23.8985 55.0573 23.8719C 55.2557 23.8591 55.3967 23.8515 55.5027 23.8462C 55.5514 23.8438 55.5821 23.8424 55.6074 23.8413C 55.6179 23.8408 55.6227 23.8407 55.6281 23.8404C 55.6298 23.8404 55.6312 23.8403 55.6303 23.8404C 55.6304 23.8403 55.6293 23.8404 55.6294 23.8404C 55.6291 23.8404 55.6285 23.8404 55.6284 23.8404C 55.6277 23.8404 55.627 23.8405 55.4795 19.8432ZM 31.4388 24.1063C 28.871 27.0796 25.2322 30.3472 21.6687 33.895C 18.1788 37.3713 14.4844 41.3776 12.4304 45.6403L 19.6373 49.1131C 21.0383 46.2055 23.8222 43.0416 27.3145 39.5629C 30.7332 36.1556 34.5805 32.6833 37.4833 29.3469L 31.4388 24.1063ZM 12.3595 45.7958C 11.8528 46.9734 11.721 48.2764 11.6746 49.1849C 11.6291 50.1421 11.6607 51.247 11.7188 52.1251C 11.7792 53.0147 11.8718 53.872 11.943 54.4448C 11.98 54.7415 12.0154 54.9992 12.0389 55.1634C 12.0514 55.2503 12.0625 55.3253 12.0694 55.3706C 12.0732 55.3956 12.0766 55.4181 12.0786 55.4307C 12.0797 55.4382 12.0809 55.4455 12.0815 55.4493C 12.0819 55.4517 12.0823 55.4544 12.0825 55.4556C 12.0826 55.4565 12.0828 55.4575 12.0828 55.458C 12.0829 55.4583 12.083 55.4588 12.083 55.459C 12.0831 55.4594 12.0831 55.4599 16.0338 54.8336C 19.9845 54.2074 19.9846 54.2078 19.9846 54.2082C 19.9846 54.2083 19.9847 54.2086 19.9847 54.2088C 19.9847 54.2087 19.9849 54.2099 19.9849 54.2097C 19.9849 54.2098 19.9849 54.2103 19.9849 54.2101C 19.9847 54.2086 19.9846 54.208 19.9841 54.2051C 19.9829 54.1971 19.9816 54.1887 19.9793 54.1733C 19.9739 54.1378 19.9673 54.0937 19.9579 54.0277C 19.9376 53.8861 19.9122 53.7023 19.8817 53.4568C 19.8179 52.9451 19.7485 52.3146 19.701 51.5909C 19.6511 50.8557 19.6287 50.2219 19.6642 49.5927C 19.6988 48.9147 19.783 48.7837 19.7082 48.9575L 12.3595 45.7958ZM 13.5712 51.6816L -1.11296 63.1538L 3.81226 69.458L 18.4964 57.9857L 13.5712 51.6816ZM -1.1432 63.1777C -4.25522 65.6576 -4.77123 70.2062 -2.94056 73.2455L 3.9123 69.1178C 3.98754 69.2427 3.99982 69.3201 4.00025 69.3227C 4.00098 69.3271 3.99782 69.3051 4.00336 69.2706C 4.00882 69.2366 4.0161 69.2311 4.00339 69.2545C 3.98901 69.2811 3.94292 69.3541 3.8425 69.4341L -1.1432 63.1777ZM -2.79874 73.4645C -1.64856 75.1037 0.10355 78.5358 2.17227 81.8401C 3.21327 83.4971 4.45437 85.2692 5.65973 86.6121C 6.82222 87.8953 8.584 89.5174 10.8799 90.0075L 12.5499 82.1837C 12.8304 82.2436 12.5047 82.2523 11.5888 81.2412C 10.7157 80.2896 9.88731 79.0861 8.94883 77.5882C 7.05858 74.5827 5.21163 70.9881 3.77049 68.8988L -2.79874 73.4645ZM 10.8188 89.9939C 15.0423 90.9648 26.4551 92.1271 38.4104 90.6385L 37.4219 82.6998C 26.3431 84.0793 15.8737 82.9472 12.6111 82.1973L 10.8188 89.9939ZM 38.3126 90.6495C 46.6682 89.8172 72.8981 89.8069 89.3848 90.095L 89.5246 82.0962C 73.1878 81.8107 46.4395 81.8004 37.5196 82.6889L 38.3126 90.6495ZM 89.4547 90.0956C 92.5779 90.0956 95.3344 92.0848 96.2716 95.2589L 103.944 92.9935C 102.002 86.4161 96.1209 82.0956 89.4547 82.0956L 89.4547 90.0956ZM 96.2549 95.2006L 103.453 121.013L 111.159 118.864L 103.961 93.0517L 96.2549 95.2006ZM 107.306 119.939C 103.863 117.902 103.863 117.902 103.864 117.902C 103.864 117.902 103.864 117.902 103.864 117.902C 103.864 117.902 103.864 117.902 103.863 117.902C 103.862 117.904 103.861 117.905 103.86 117.908C 103.856 117.915 103.85 117.924 103.842 117.938C 103.825 117.966 103.801 118.006 103.767 118.063C 103.698 118.179 103.598 118.344 103.462 118.566C 103.187 119.017 102.791 119.659 102.274 120.476C 101.231 122.127 99.7568 124.394 97.9374 127.015C 94.2771 132.291 89.4633 138.677 84.3283 143.778L 89.9742 149.446C 95.4924 143.935 100.756 136.984 104.51 131.576C 106.397 128.856 107.965 126.445 109.036 124.752C 109.576 123.898 110.006 123.202 110.292 122.733C 110.437 122.495 110.551 122.305 110.626 122.181C 110.664 122.117 110.695 122.065 110.715 122.033C 110.725 122.016 110.733 122.001 110.739 121.993C 110.741 121.988 110.744 121.983 110.745 121.981C 110.746 121.98 110.747 121.978 110.747 121.978C 110.748 121.977 110.748 121.977 110.748 121.976C 110.748 121.976 110.749 121.975 107.306 119.939ZM 84.3283 143.778C 72.3108 155.749 72.8174 172.001 76.9541 180.242L 84.1039 176.653C 81.3304 171.128 80.6853 158.699 89.9742 149.446L 84.3283 143.778ZM 76.9255 180.184C 79.1362 184.772 84.274 189.395 90.2158 190.643C 93.0982 191.206 96.9203 190.833 99.9625 189.244C 103.155 187.472 105.785 184.409 107.768 180.129L 100.509 176.766C 99.0377 179.942 97.4209 181.505 96.0784 182.251C 94.5858 183.181 93.5852 183.22 91.8608 182.814C 88.5889 182.127 85.3769 179.293 84.1325 176.711L 76.9255 180.184ZM 107.741 180.186C 110.869 173.705 116.94 168.625 123.681 163.535C 126.994 161.032 130.397 158.569 133.371 156.046C 136.364 153.496 139.222 150.523 141.014 147.445L 134.063 143.484C 132.831 145.712 130.903 147.65 128.19 149.95C 125.46 152.275 122.241 154.598 118.86 157.151C 112.213 162.17 104.606 168.276 100.536 176.709L 107.741 180.186ZM 141.054 147.372C 146.285 137.732 159.588 121.089 156.76 100.746L 148.836 101.847C 151.191 118.789 140.308 131.974 134.022 143.557L 141.054 147.372ZM 156.796 101.44L 157.084 93.4091L 149.089 93.1224L 148.801 101.153L 156.796 101.44ZM 153.086 93.2658C 149.546 95.1275 149.545 95.1265 149.545 95.1255C 149.545 95.1253 149.544 95.1244 149.544 95.1239C 149.544 95.1242 149.542 95.1207 149.543 95.1213C 149.542 95.1213 149.542 95.1194 149.542 95.1195C 149.543 95.1225 149.543 95.1226 149.546 95.1285C 149.555 95.1458 149.564 95.1625 149.58 95.1961C 149.62 95.2747 149.668 95.3715 149.739 95.5213C 149.893 95.8454 150.087 96.2713 150.333 96.8635C 150.849 98.1009 151.452 99.7143 151.993 101.755C 153.123 105.953 153.846 110.777 152.397 115.719L 160.109 117.848C 161.828 111.319 160.967 104.383 159.722 99.6903C 159.075 97.2857 158.293 95.1706 157.72 93.7908C 157.421 93.0745 157.146 92.4697 156.965 92.0902C 156.87 91.8883 156.784 91.715 156.732 91.6116C 156.704 91.5541 156.677 91.5018 156.662 91.4729C 156.653 91.4556 156.644 91.4383 156.64 91.4296C 156.637 91.4239 156.633 91.4174 156.632 91.4146C 156.631 91.4125 156.629 91.4098 156.629 91.4088C 156.628 91.4079 156.628 91.4067 156.628 91.4063C 156.627 91.4051 156.626 91.4041 153.086 93.2658ZM 152.374 115.81C 150.934 121.546 150.214 124.414 149.854 125.848C 149.674 126.565 149.584 126.924 149.539 127.103C 149.517 127.193 149.506 127.238 149.5 127.26C 149.497 127.271 149.496 127.277 149.495 127.28C 149.495 127.281 149.494 127.282 149.494 127.282C 149.494 127.283 149.494 127.283 149.494 127.283C 149.494 127.283 149.494 127.283 149.494 127.283C 149.494 127.283 149.494 127.284 149.494 127.284C 149.494 127.284 149.494 127.285 149.494 127.286C 149.475 129.148 150.301 130.817 153.374 128.256C 156.447 125.695 157.273 127.365 157.254 129.227C 157.254 129.227 157.254 129.228 157.254 129.228C 157.254 129.228 157.254 129.229 157.254 129.229C 157.254 129.229 157.254 129.23 157.254 129.229C 157.254 129.229 157.254 129.229 157.254 129.229C 157.254 129.229 157.254 129.228 157.254 129.227C 157.255 129.224 157.257 129.219 157.259 129.207C 157.265 129.185 157.276 129.14 157.299 129.051C 157.344 128.871 157.434 128.513 157.614 127.796C 157.973 126.362 158.693 123.494 160.133 117.758L 152.374 115.81ZM 153.374 128.256C 152.234 132.09 152.235 132.091 152.235 132.091C 152.236 132.091 152.236 132.091 152.237 132.091C 152.238 132.092 152.241 132.092 152.243 132.093C 152.248 132.094 152.255 132.097 152.265 132.099C 152.283 132.105 152.311 132.113 152.346 132.123C 152.415 132.144 152.521 132.175 152.656 132.214C 152.922 132.292 153.32 132.407 153.823 132.551C 154.821 132.837 156.271 133.245 158.021 133.721C 161.507 134.668 166.288 135.908 171.282 137.034C 176.27 138.158 181.644 139.2 186.195 139.731C 188.494 139.997 190.78 140.145 192.65 140.105C 194.493 140.063 196.538 139.84 198.234 139.061L 194.892 131.792C 194.716 131.873 194.008 132.072 192.465 132.107C 190.95 132.147 189.218 132.03 187.118 131.785C 182.869 131.294 177.913 130.329 173.041 129.23C 168.173 128.133 163.56 126.936 160.118 126C 158.404 125.535 157.006 125.141 156.023 124.86C 155.535 124.72 155.158 124.611 154.898 124.535C 154.769 124.497 154.674 124.469 154.607 124.45C 154.575 124.44 154.552 124.433 154.535 124.428C 154.527 124.426 154.522 124.424 154.518 124.423C 154.516 124.423 154.515 124.422 154.514 124.422C 154.514 124.422 154.514 124.422 154.514 124.422C 154.514 124.422 154.514 124.422 153.374 128.256ZM 196.563 135.426C 200.555 135.669 200.555 135.671 200.555 135.673C 200.555 135.673 200.555 135.675 200.555 135.676C 200.555 135.675 200.555 135.681 200.555 135.68C 200.555 135.68 200.554 135.684 200.554 135.684C 200.554 135.689 200.555 135.681 200.555 135.672C 200.557 135.646 200.559 135.621 200.564 135.57C 200.575 135.447 200.59 135.298 200.619 135.063C 200.681 134.555 200.777 133.882 200.958 132.948C 201.334 130.996 201.969 128.395 203.19 125.136C 205.68 118.427 210.121 110.016 218.919 101.593L 213.364 95.8367C 203.735 105.196 198.386 115.141 195.694 122.342C 194.324 126.038 193.52 129.281 193.103 131.433C 192.888 132.552 192.751 133.497 192.678 134.093C 192.639 134.411 192.611 134.686 192.596 134.849C 192.588 134.941 192.581 135.025 192.578 135.071C 192.576 135.099 192.574 135.127 192.573 135.141C 192.572 135.15 192.572 135.161 192.571 135.166C 192.571 135.169 192.571 135.174 192.571 135.175C 192.571 135.177 192.57 135.179 192.57 135.18C 192.57 135.182 192.57 135.183 196.563 135.426ZM 216.142 98.7151C 212.718 96.6463 212.718 96.6469 212.717 96.6476C 212.717 96.648 212.717 96.6488 212.716 96.6496C 212.715 96.6508 212.714 96.6532 212.713 96.6556C 212.71 96.6598 212.706 96.6672 212.701 96.6756C 212.691 96.6912 212.676 96.7165 212.657 96.7474C 212.622 96.8065 212.567 96.8988 212.499 97.0146C 212.365 97.2406 212.164 97.5838 211.915 98.0153C 211.423 98.8668 210.71 100.125 209.874 101.662C 208.217 104.71 205.988 109.024 203.853 113.787C 201.728 118.535 199.604 123.969 198.192 129.121C 196.79 134.263 195.94 139.647 196.637 144.332L 204.55 143.155C 204.095 140.097 204.614 135.98 205.91 131.227C 207.198 126.484 209.105 121.63 211.154 117.057C 213.195 112.498 215.285 108.458 216.902 105.484C 217.704 104.009 218.368 102.839 218.844 102.014C 219.078 101.608 219.258 101.301 219.385 101.087C 219.446 100.982 219.491 100.907 219.524 100.853C 219.539 100.828 219.549 100.81 219.557 100.797C 219.56 100.792 219.562 100.788 219.564 100.785C 219.565 100.784 219.565 100.784 219.565 100.783C 219.566 100.783 219.565 100.783 219.565 100.783C 219.565 100.783 219.565 100.784 216.142 98.7151ZM 196.637 144.332C 198.836 159.118 197.214 166.006 194.994 174.576L 202.738 176.582C 205.125 167.371 206.958 159.345 204.55 143.155L 196.637 144.332ZM 194.994 174.576C 193.998 178.545 192.763 180.734 191.616 182.275C 191.128 182.951 190.812 183.271 190.489 183.566C 190.372 183.676 190.344 183.697 190.276 183.749C 190.264 183.758 190.276 183.749 190.283 183.744C 190.275 183.75 190.321 183.718 190.318 183.72C 190.31 183.726 190.347 183.701 190.343 183.703C 190.339 183.707 190.361 183.692 190.358 183.694C 190.356 183.695 190.368 183.688 190.366 183.688C 190.368 183.688 190.37 183.686 190.37 183.686C 190.373 183.684 190.375 183.683 192.532 187.052C 194.689 190.42 194.691 190.419 194.693 190.417C 194.694 190.417 194.696 190.415 194.698 190.414C 194.699 190.413 194.704 190.411 194.707 190.409C 194.71 190.406 194.719 190.4 194.726 190.396C 194.734 190.391 194.754 190.378 194.769 190.367C 194.789 190.354 194.835 190.323 194.873 190.297C 194.926 190.259 195.04 190.176 195.143 190.098C 195.304 189.974 195.609 189.724 195.906 189.453C 196.411 188.986 197.247 188.105 198.054 187.024C 199.498 185.051 201.431 181.505 202.738 176.582L 194.994 174.576ZM 192.532 187.052C 191.941 183.095 191.94 183.096 191.938 183.096C 191.938 183.096 191.937 183.096 191.936 183.096C 191.935 183.096 191.932 183.097 191.93 183.097C 191.927 183.098 191.921 183.098 191.915 183.099C 191.907 183.101 191.89 183.103 191.873 183.106C 191.845 183.11 191.795 183.119 191.74 183.128C 191.643 183.144 191.479 183.173 191.294 183.208C 190.95 183.273 190.403 183.386 189.798 183.532C 188.641 183.814 186.893 184.328 185.252 185.032C 183.636 185.741 181.577 186.978 180.161 188.407C 178.556 190.092 177.336 192.471 177.607 195.446L 185.574 194.719C 185.558 194.538 185.561 194.337 185.954 193.924C 186.535 193.256 187.248 192.879 188.438 192.37C 189.605 191.854 190.7 191.544 191.685 191.306C 192.151 191.192 192.498 191.122 192.782 191.068C 192.911 191.044 192.994 191.029 193.065 191.017C 193.095 191.012 193.109 191.01 193.125 191.007C 193.13 191.007 193.134 191.006 193.132 191.006C 193.132 191.006 193.129 191.007 193.129 191.007C 193.13 191.007 193.126 191.007 193.127 191.007C 193.126 191.007 193.125 191.007 193.125 191.007C 193.124 191.008 193.123 191.008 192.532 187.052ZM 177.606 195.43C 177.88 198.567 180.462 200.099 181.914 200.749C 183.442 201.416 185.631 201.952 187.776 202.271C 191.948 202.876 197.461 203.044 202.723 202.99C 207.985 202.934 213.256 202.67 217.152 202.422C 219.108 202.297 220.749 202.175 221.885 202.085C 222.456 202.04 222.911 202.002 223.217 201.976C 223.371 201.963 223.492 201.952 223.572 201.945C 223.613 201.942 223.645 201.939 223.666 201.937C 223.676 201.936 223.685 201.935 223.69 201.935C 223.693 201.935 223.696 201.934 223.697 201.934C 223.698 201.934 223.699 201.934 223.699 201.934C 223.7 201.934 223.701 201.934 223.34 197.95C 222.979 193.967 222.979 193.967 222.979 193.967C 222.979 193.967 222.979 193.967 222.978 193.967C 222.977 193.967 222.976 193.967 222.974 193.967C 222.969 193.967 222.963 193.968 222.954 193.969C 222.935 193.97 222.908 193.973 222.871 193.976C 222.795 193.983 222.685 193.992 222.538 194.005C 222.24 194.03 221.809 194.066 221.254 194.11C 220.136 194.198 218.556 194.316 216.643 194.438C 212.801 194.683 207.742 194.938 202.64 194.99C 197.536 195.044 192.647 194.907 188.937 194.356C 187.142 194.096 186.019 193.842 185.186 193.449C 184.276 193.041 185.446 193.247 185.575 194.734L 177.606 195.43ZM 223.34 197.95C 224.053 201.886 224.054 201.886 224.055 201.886C 224.056 201.886 224.057 201.885 224.058 201.885C 224.059 201.885 224.062 201.885 224.064 201.884C 224.066 201.884 224.073 201.883 224.078 201.882C 224.084 201.88 224.099 201.878 224.112 201.875C 224.132 201.871 224.171 201.864 224.209 201.856C 224.271 201.843 224.388 201.818 224.507 201.791C 224.716 201.743 225.081 201.651 225.459 201.541C 226.151 201.336 227.305 200.922 228.354 200.387C 230.335 199.355 233.674 196.958 233.674 192.501L 225.674 192.501C 225.674 192.502 225.701 192.499 225.612 192.606C 225.393 192.926 225.235 193 224.66 193.291C 224.125 193.581 223.696 193.722 223.2 193.867C 222.984 193.931 222.854 193.963 222.717 193.994C 222.663 194.007 222.643 194.011 222.612 194.017C 222.604 194.019 222.599 194.02 222.603 194.019C 222.602 194.019 222.611 194.017 222.611 194.017C 222.609 194.018 222.619 194.016 222.618 194.016C 222.617 194.016 222.623 194.015 222.622 194.015C 222.623 194.015 222.624 194.015 222.624 194.015C 222.626 194.015 222.627 194.014 223.34 197.95ZM 233.674 192.501C 233.674 193.189 233.387 193.359 233.871 192.59C 234.293 191.911 234.917 191.102 235.832 189.96C 237.683 187.65 240.36 184.485 243.382 180.334C 249.348 172.125 256.803 159.691 262.017 142L 254.34 139.752C 249.477 156.477 242.68 167.705 236.912 175.629C 234.068 179.544 231.508 182.563 229.589 184.958C 228.619 186.169 227.725 187.344 227.1 188.328C 226.537 189.223 225.674 190.737 225.674 192.501L 233.674 192.501ZM 262.005 142.041C 267.285 124.69 271.117 114.788 272.432 105.77C 273.79 96.257 272.253 88.0027 267.417 74.4283L 259.881 77.1128C 264.547 90.2114 265.601 97.0145 264.512 104.639C 263.379 112.757 259.726 122.071 254.352 139.711L 262.005 142.041ZM 63.8294 45.0822C 67.7159 44.1363 67.7156 44.1349 67.7152 44.1334C 67.7151 44.1328 67.7147 44.1313 67.7144 44.1301C 67.7141 44.1289 67.7133 44.1256 67.7127 44.1231C 67.7119 44.12 67.71 44.1124 67.7085 44.1063C 67.7064 44.0978 67.7017 44.0791 67.6973 44.0621C 67.6906 44.0361 67.6772 43.9847 67.6634 43.9333C 67.6399 43.8464 67.5962 43.6906 67.5463 43.5234C 67.4558 43.2222 67.2937 42.7209 67.0923 42.1768C 66.7124 41.16 66.0161 39.5727 65.0922 38.0282C 63.2187 34.9319 59.8854 31.0869 54.4307 29.7285L 52.4975 37.4914C 55.1046 38.1406 56.954 40.0317 58.2477 42.1697C 58.9073 43.2423 59.2908 44.1467 59.5947 44.9672C 59.7352 45.3418 59.816 45.5956 59.883 45.8198C 59.9118 45.9153 59.9255 45.9649 59.9397 46.0176C 59.9447 46.0359 59.9452 46.038 59.9477 46.0478C 59.948 46.0489 59.947 46.045 59.9468 46.0444C 59.9472 46.046 59.945 46.0371 59.9452 46.0379C 59.9455 46.0392 59.9439 46.0327 59.9441 46.0334C 59.9439 46.0326 59.9436 46.0312 59.9435 46.0308C 59.9431 46.0295 59.9428 46.0281 63.8294 45.0822ZM 53.4641 33.6099C 57.3362 34.6131 57.336 34.6141 57.3357 34.6151C 57.3356 34.6154 57.3354 34.6164 57.3352 34.617C 57.3353 34.6165 57.3342 34.621 57.3344 34.6201C 57.3345 34.6197 57.3332 34.6247 57.3334 34.624C 57.333 34.6253 57.3331 34.6252 57.3337 34.6228C 57.3366 34.6121 57.3382 34.606 57.3438 34.5862C 57.3581 34.5347 57.3733 34.4814 57.4012 34.3897C 57.4642 34.1809 57.5398 33.9429 57.661 33.6109C 57.9202 32.8925 58.2098 32.1756 58.6703 31.4162C 59.1235 30.65 59.4924 30.2926 59.6623 30.1815C 59.8008 30.071 59.573 30.2365 59.5315 30.2109C 59.4632 30.2483 59.2084 30.135 59.3355 30.2133L 61.9889 22.6662C 56.4655 20.7243 53.0306 25.2372 51.7849 27.3429C 51.0577 28.5911 50.4656 29.9894 50.1399 30.8843C 49.9686 31.3589 49.826 31.8021 49.744 32.0728C 49.6993 32.2208 49.6603 32.3569 49.6385 32.4348C 49.626 32.4797 49.6141 32.5233 49.6079 32.5462C 49.6041 32.5605 49.6 32.5758 49.5981 32.583C 49.5968 32.5881 49.5952 32.594 49.5945 32.5966C 49.594 32.5985 49.5934 32.6011 49.5931 32.6021C 49.5929 32.6029 49.5926 32.6041 49.5925 32.6045C 49.5922 32.6057 49.5919 32.6068 53.4641 33.6099ZM 59.3355 30.2133C 59.0966 30.2922 59.3045 29.9779 59.6428 30.9112C 60.0962 31.9565 60.2927 33.1608 60.4164 34.8773C 60.6935 38.3603 60.2996 42.092 59.8907 44.3844L 67.768 45.78C 68.2229 43.1967 68.6928 38.4676 68.394 34.2785C 68.2298 32.159 67.7785 29.7244 67.0442 27.8747C 66.2349 25.9021 64.7327 23.6308 61.9889 22.6662L 59.3355 30.2133Z"/>
</defs>
</svg>
