<?xml version="1.0" encoding="utf-8"?>
<!-- Generator: Adobe Illustrator 18.1.1, SVG Export Plug-In . SVG Version: 6.00 Build 0)  -->
<svg version="1.1" id="Layer_1" xmlns:figma="http://www.figma.com/figma/ns"
	 xmlns="http://www.w3.org/2000/svg" xmlns:xlink="http://www.w3.org/1999/xlink" x="0px" y="0px" viewBox="-210 267 378 67"
	 enable-background="new -210 267 378 67" xml:space="preserve">
<title>logoname</title>
<desc>Created using Figma</desc>
<g>
	<g>
		<path fill="#FFFFFF" d="M-123.7,280.6c1.5,0,3,0.2,4.4,0.6c1.4,0.4,2.7,1,3.9,1.7c1.2,0.7,2.3,1.6,3.3,2.6c1,1,1.9,2.1,2.6,3.4
			c0.7,1.2,1.3,2.5,1.7,4c0.4,1.4,0.6,2.9,0.6,4.4c0,2.3-0.4,4.4-1.3,6.4c-0.9,2-2,3.8-3.5,5.3c-1.5,1.5-3.3,2.7-5.3,3.5
			c-2,0.9-4.2,1.3-6.4,1.3h-8.3v8.3h-8.3v-41.4H-123.7 M-132,305.5h8.3c1.1,0,2.2-0.2,3.2-0.6c1-0.4,1.9-1,2.6-1.8
			c0.8-0.8,1.3-1.6,1.8-2.6c0.4-1,0.6-2.1,0.6-3.2c0-1.1-0.2-2.2-0.6-3.2c-0.4-1-1-1.9-1.8-2.6c-0.8-0.8-1.6-1.3-2.6-1.8
			c-1-0.4-2.1-0.6-3.2-0.6h-8.3V305.5 M-123.7,278.6h-16.6h-2v2V322v2h2h8.3h2v-2v-6.3h6.3c2.5,0,5-0.5,7.2-1.5c2.2-1,4.2-2.3,5.9-4
			c1.7-1.7,3-3.7,4-5.9c1-2.3,1.5-4.7,1.5-7.2c0-1.7-0.2-3.4-0.7-4.9c-0.4-1.6-1.1-3.1-1.9-4.4c-0.8-1.4-1.8-2.6-2.9-3.8
			c-1.1-1.1-2.4-2.1-3.7-2.9c-1.4-0.8-2.9-1.4-4.4-1.9C-120.4,278.8-122,278.6-123.7,278.6L-123.7,278.6z M-130,290.9h6.3
			c0.9,0,1.7,0.2,2.4,0.5c0.8,0.3,1.4,0.8,2,1.4c0.6,0.6,1,1.2,1.4,2c0.3,0.8,0.5,1.6,0.5,2.4c0,0.9-0.2,1.7-0.5,2.4
			c-0.3,0.8-0.8,1.4-1.4,2c-0.6,0.6-1.2,1-2,1.4c-0.8,0.3-1.5,0.5-2.4,0.5h-6.3V290.9L-130,290.9z"/>
	</g>
	<g>
		<path fill="#FFFFFF" d="M-71.1,280.1c2,0,3.9,0.3,5.7,0.8c1.8,0.5,3.5,1.2,5.1,2.1c1.6,0.9,3,2,4.3,3.3c1.3,1.3,2.4,2.8,3.3,4.3
			c0.9,1.6,1.6,3.3,2.1,5.1c0.5,1.8,0.8,3.7,0.8,5.7c0,2-0.3,3.9-0.8,5.7c-0.5,1.8-1.2,3.5-2.1,5.1c-0.9,1.6-2,3-3.3,4.3
			c-1.3,1.3-2.8,2.4-4.3,3.4c-1.6,0.9-3.3,1.7-5.1,2.2c-1.8,0.5-3.7,0.8-5.7,0.8s-3.9-0.3-5.7-0.8c-1.8-0.5-3.5-1.2-5.1-2.2
			c-1.6-0.9-3-2.1-4.3-3.4c-1.3-1.3-2.4-2.8-3.4-4.3c-0.9-1.6-1.7-3.3-2.2-5.1c-0.5-1.8-0.8-3.7-0.8-5.7c0-2,0.3-3.9,0.8-5.7
			c0.5-1.8,1.2-3.5,2.2-5.1c0.9-1.6,2.1-3,3.4-4.3c1.3-1.3,2.8-2.4,4.3-3.3c1.6-0.9,3.3-1.6,5.1-2.1
			C-74.9,280.4-73,280.1-71.1,280.1 M-71.1,314.6c1.8,0,3.5-0.3,5.1-1c1.6-0.7,3-1.6,4.2-2.8c1.2-1.2,2.1-2.6,2.8-4.2
			c0.7-1.6,1-3.3,1-5.1c0-1.8-0.3-3.5-1-5.1c-0.7-1.6-1.6-3-2.8-4.2c-1.2-1.2-2.6-2.1-4.2-2.8c-1.6-0.7-3.3-1-5.1-1
			c-1.8,0-3.5,0.3-5.1,1c-1.6,0.7-3,1.6-4.2,2.8c-1.2,1.2-2.1,2.6-2.8,4.2c-0.7,1.6-1,3.3-1,5.1c0,1.8,0.3,3.5,1,5.1
			c0.7,1.6,1.6,3,2.8,4.2c1.2,1.2,2.6,2.1,4.2,2.8C-74.6,314.3-72.9,314.6-71.1,314.6 M-71.1,278.1c-2.1,0-4.2,0.3-6.2,0.8
			c-2,0.6-3.8,1.3-5.6,2.3c-1.7,1-3.3,2.2-4.8,3.7c-1.4,1.4-2.7,3-3.7,4.7c-1,1.7-1.8,3.6-2.4,5.6c-0.6,2-0.8,4.1-0.8,6.2
			c0,2.1,0.3,4.2,0.8,6.2c0.6,2,1.4,3.9,2.4,5.6c1,1.7,2.2,3.3,3.7,4.7c1.4,1.4,3,2.7,4.7,3.7c1.7,1,3.6,1.8,5.6,2.4
			c2,0.6,4.1,0.8,6.2,0.8c2.1,0,4.2-0.3,6.2-0.8c2-0.6,3.9-1.3,5.6-2.4c1.7-1,3.3-2.2,4.7-3.7c1.4-1.4,2.7-3,3.7-4.8
			c1-1.7,1.8-3.6,2.3-5.6c0.6-2,0.8-4.1,0.8-6.2c0-2.1-0.3-4.2-0.8-6.2c-0.6-2-1.3-3.9-2.3-5.6c-1-1.7-2.2-3.3-3.7-4.7
			c-1.4-1.4-3-2.7-4.7-3.7c-1.7-1-3.6-1.8-5.6-2.4C-66.8,278.4-68.9,278.1-71.1,278.1L-71.1,278.1z M-71.1,312.6
			c-1.5,0-3-0.3-4.3-0.9c-1.4-0.6-2.6-1.4-3.6-2.4c-1-1-1.8-2.2-2.4-3.6c-0.6-1.3-0.9-2.8-0.9-4.3c0-1.5,0.3-3,0.9-4.3
			c0.6-1.4,1.4-2.6,2.4-3.6c1-1,2.2-1.8,3.6-2.4c1.3-0.6,2.8-0.9,4.3-0.9c1.5,0,3,0.3,4.3,0.9c1.4,0.6,2.6,1.4,3.6,2.4
			c1,1,1.8,2.2,2.4,3.6c0.6,1.3,0.9,2.8,0.9,4.3c0,1.5-0.3,3-0.9,4.3c-0.6,1.4-1.4,2.6-2.4,3.6c-1,1-2.2,1.8-3.6,2.4
			C-68.1,312.3-69.5,312.6-71.1,312.6L-71.1,312.6z"/>
	</g>
	<g>
		<path fill="#FFFFFF" d="M-23.9,280.6v33.1h20.7v8.3h-29v-41.4H-23.9 M-21.9,278.6h-2h-8.3h-2v2V322v2h2h29h2v-2v-8.3v-2h-2h-18.7
			v-31.1V278.6L-21.9,278.6z"/>
	</g>
	<g>
		<path fill="#FFFFFF" d="M29.3,280.6c2.3,0,4.4,0.4,6.4,1.3c2,0.9,3.8,2,5.3,3.5c1.5,1.5,2.7,3.3,3.5,5.3c0.9,2,1.3,4.2,1.3,6.4
			V322h-8.3v-8.3H21v8.3h-8.3v-24.8c0-2.3,0.4-4.4,1.3-6.4c0.9-2,2-3.8,3.5-5.3c1.5-1.5,3.2-2.7,5.3-3.5S27,280.6,29.3,280.6
			 M21,305.5h16.6v-8.3c0-1.1-0.2-2.2-0.6-3.2c-0.4-1-1-1.9-1.8-2.6c-0.8-0.8-1.6-1.3-2.6-1.8c-1-0.4-2.1-0.6-3.2-0.6
			c-1.1,0-2.2,0.2-3.2,0.6c-1,0.4-1.9,1-2.6,1.8c-0.8,0.8-1.3,1.6-1.8,2.6c-0.4,1-0.6,2.1-0.6,3.2V305.5 M29.3,278.6
			c-2.6,0-5,0.5-7.2,1.5c-2.2,1-4.2,2.3-5.9,4c-1.7,1.7-3,3.7-4,5.9c-1,2.3-1.5,4.7-1.5,7.2V322v2h2H21h2v-2v-6.3h12.6v6.3v2h2h8.3
			h2v-2v-24.8c0-2.6-0.5-5-1.5-7.2c-1-2.2-2.3-4.2-4-5.9c-1.7-1.7-3.7-3-5.9-4C34.3,279.1,31.9,278.6,29.3,278.6L29.3,278.6z
			 M23,303.5v-6.3c0-0.9,0.2-1.7,0.5-2.4c0.3-0.8,0.8-1.4,1.4-2s1.2-1,2-1.3c0.8-0.3,1.6-0.5,2.4-0.5s1.7,0.2,2.4,0.5
			c0.8,0.3,1.4,0.8,2,1.4c0.6,0.6,1,1.2,1.3,2c0.3,0.8,0.5,1.6,0.5,2.4v6.3H23L23,303.5z"/>
	</g>
	<g>
		<path fill="#FFFFFF" d="M81.7,280.6c1.5,0,3,0.2,4.4,0.6c1.4,0.4,2.7,1,3.9,1.7c1.2,0.7,2.3,1.6,3.3,2.6c1,1,1.9,2.1,2.6,3.4
			c0.7,1.2,1.3,2.5,1.7,4c0.4,1.4,0.6,2.9,0.6,4.4c0,1.4-0.2,2.8-0.5,4.2c-0.4,1.3-0.9,2.6-1.5,3.8c-0.7,1.2-1.5,2.3-2.4,3.3
			c-1,1-2,1.9-3.2,2.7l4.6,10.8h-8.8l-3.6-8.3l-9.3,0.1v8.3h-8.3v-41.4H81.7 M73.5,305.5h8.3c1.1,0,2.2-0.2,3.2-0.6
			c1-0.4,1.9-1,2.6-1.8c0.8-0.8,1.3-1.6,1.8-2.6c0.4-1,0.6-2.1,0.6-3.2c0-1.1-0.2-2.2-0.6-3.2c-0.4-1-1-1.9-1.8-2.6
			c-0.8-0.8-1.6-1.3-2.6-1.8c-1-0.4-2.1-0.6-3.2-0.6h-8.3V305.5 M81.7,278.6H65.2h-2v2V322v2h2h8.3h2v-2v-6.3l6,0l3.1,7.1L85,324
			h1.3h8.8h3l-1.2-2.8l-4-9.3c0.8-0.6,1.5-1.3,2.2-2c1.1-1.1,2-2.4,2.7-3.8c0.7-1.3,1.3-2.8,1.7-4.3c0.4-1.5,0.6-3.1,0.6-4.7
			c0-1.7-0.2-3.3-0.7-4.9c-0.4-1.6-1.1-3-1.9-4.4c-0.8-1.4-1.8-2.6-2.9-3.8c-1.1-1.1-2.4-2.1-3.7-2.9c-1.4-0.8-2.9-1.4-4.4-1.9
			C85.1,278.8,83.4,278.6,81.7,278.6L81.7,278.6z M75.5,290.9h6.3c0.9,0,1.7,0.2,2.4,0.5c0.8,0.3,1.4,0.8,2,1.4c0.6,0.6,1,1.2,1.3,2
			c0.3,0.8,0.5,1.6,0.5,2.4s-0.2,1.7-0.5,2.4c-0.3,0.8-0.8,1.4-1.4,2c-0.6,0.6-1.2,1-2,1.4c-0.8,0.3-1.5,0.5-2.4,0.5h-6.3V290.9
			L75.5,290.9z"/>
	</g>
</g>
</svg>
