<?xml version="1.0" encoding="utf-8"?>
<!-- Generator: Adobe Illustrator 18.1.1, SVG Export Plug-In . SVG Version: 6.00 Build 0)  -->
<svg version="1.1" id="Layer_1" xmlns:figma="http://www.figma.com/figma/ns"
	 xmlns="http://www.w3.org/2000/svg" xmlns:xlink="http://www.w3.org/1999/xlink" x="0px" y="0px" viewBox="-369 272 61 58"
	 enable-background="new -369 272 61 58" xml:space="preserve">
<title>Heart</title>
<desc>Created using Figma</desc>
<g id="Heart" figma:type="frame">
	<g id="Subtract" figma:type="vector-operation">
		<g transform="translate(2615 360)">
			<path id="path0_fill" fill="#FFFFFF" d="M-338.5,330c16.8,0,30.5-13,30.5-29s-13.7-29-30.5-29s-30.5,13-30.5,29
				S-355.3,330-338.5,330z M-339,292.2c2-2.4,4.7-4.2,8-4.2c4.7,0,8,4,8,8.4c0,2.4-0.8,4.1-2,5.7l-12.5,14.9c-1.4,1.3-1.7,1.3-3.1,0
				l-12.4-14.9c-1.1-1.6-2-3.3-2-5.7c0-4.4,3.3-8.4,8-8.4C-343.7,288-341,289.8-339,292.2z"/>
		</g>
	</g>
</g>
</svg>
